/* XPM */
static char *dee921659d324732e21b80fd067d8045[] = {
/* columns rows colors chars-per-pixel */
"64 64 137 2 ",
"   c #3F8D9D",
".  c #408E9E",
"X  c #408F9F",
"o  c #418F9F",
"O  c #428F9F",
"+  c #43909F",
"@  c #428FA0",
"#  c #4390A0",
"$  c #4490A0",
"%  c #4491A0",
"&  c #4591A0",
"*  c #4491A1",
"=  c #4691A1",
"-  c #4592A0",
";  c #4692A1",
":  c #4692A2",
">  c #4792A2",
",  c #4793A2",
"<  c #4893A2",
"1  c #4993A2",
"2  c #4893A3",
"3  c #4994A2",
"4  c #4994A3",
"5  c #4A94A3",
"6  c #4A95A3",
"7  c #4B95A3",
"8  c #4C95A3",
"9  c #4B95A4",
"0  c #4C95A4",
"q  c #4C95A5",
"w  c #4D95A5",
"e  c #4C96A4",
"r  c #4C96A5",
"t  c #4D96A5",
"y  c #4E96A5",
"u  c #4F97A5",
"i  c #4E96A6",
"p  c #4F97A6",
"a  c #4F98A6",
"s  c #5098A6",
"d  c #5198A7",
"f  c #5199A7",
"g  c #5299A7",
"h  c #5299A8",
"j  c #5399A8",
"k  c #539AA8",
"l  c #5499A8",
"z  c #549AA8",
"x  c #549AA9",
"c  c #559AA9",
"v  c #549BA9",
"b  c #559BA9",
"n  c #569BA9",
"m  c #559BAA",
"M  c #569BAA",
"N  c #579BAA",
"B  c #579CAA",
"V  c #579CAB",
"C  c #589CAA",
"Z  c #599DAA",
"A  c #589CAB",
"S  c #589DAB",
"D  c #599DAB",
"F  c #5A9DAB",
"G  c #5B9DAB",
"H  c #5B9EAB",
"J  c #5B9EAC",
"K  c #5C9EAC",
"L  c #5C9FAC",
"P  c #5C9FAD",
"I  c #5D9FAD",
"U  c #5DA0AD",
"Y  c #5EA0AD",
"T  c #5EA0AE",
"R  c #5FA0AE",
"E  c #5EA1AE",
"W  c #60A0AD",
"Q  c #60A0AE",
"!  c #60A1AE",
"~  c #61A1AE",
"^  c #60A1AF",
"/  c #61A1AF",
"(  c #61A2AF",
")  c #61A2B0",
"_  c #62A2B0",
"`  c #63A2B0",
"'  c #62A3B0",
"]  c #63A3B0",
"[  c #63A2B1",
"{  c #64A3B0",
"}  c #64A3B1",
"|  c #65A3B1",
" . c #66A3B1",
".. c #64A4B1",
"X. c #65A4B1",
"o. c #66A4B1",
"O. c #66A4B2",
"+. c #67A4B2",
"@. c #67A5B2",
"#. c #68A5B2",
"$. c #68A6B2",
"%. c #68A6B3",
"&. c #69A6B3",
"*. c #6AA6B3",
"=. c #6AA7B3",
"-. c #6BA7B3",
";. c #6AA7B4",
":. c #6CA7B5",
">. c #6DA7B5",
",. c #6AA8B4",
"<. c #6BA8B4",
"1. c #6BA8B5",
"2. c #6DA8B5",
"3. c #6EA8B5",
"4. c #6EA9B5",
"5. c #6DA8B6",
"6. c #6EA9B6",
"7. c #6FA9B6",
"8. c #6EA9B7",
"9. c #6FAAB6",
"0. c #6EAAB7",
"q. c #6FAAB7",
"w. c #70AAB6",
"e. c #71AAB6",
"r. c #71ABB6",
"t. c #71AAB7",
"y. c #71ABB7",
"u. c #72AAB7",
"i. c #72ABB7",
"p. c #71ABB8",
"a. c #72ABB8",
"s. c #73ACB8",
"d. c #72ACB9",
"f. c #74ACB9",
"g. c #75ACB9",
"h. c #74ADB9",
"j. c None",
/* pixels */
"j.j.j.j.j.j.j.j.j.j.j.j.j.j.j.j.j.j.j.j.j.j.j.j.j.j.j.j.j.j.j.j.j.j.j.j.j.j.j.j.j.j.j.j.j.j.j.j.j.j.j.j.j.j.j.j.j.j.j.j.j.j.j.j.",
"j.j.j.j.j.j.j.j.j.j.j.j.j.j.j.j.j.j.j.j.j.j.j.j.j.j.j.j.j.j.g.g.d.g.j.j.j.j.j.j.j.j.j.j.j.j.j.j.j.j.j.j.j.j.j.j.j.j.j.j.j.j.j.j.",
"j.j.j.j.j.j.j.j.j.j.j.j.j.j.j.j.j.j.j.j.j.j.j.j.j.j.j.j.g.g.g.g.g.h.h.j.j.j.j.j.j.j.j.j.j.j.j.j.j.j.j.j.j.j.j.j.j.j.j.j.j.j.j.j.",
"j.j.j.j.j.j.j.j.j.j.j.j.j.j.j.j.j.j.j.j.j.j.j.j.j.j.j.g.y.g.y.g.d.y.g.y.h.j.j.j.j.j.j.j.j.j.j.j.j.j.j.j.j.j.j.j.j.j.j.j.j.j.j.j.",
"j.j.j.j.j.j.j.j.j.j.j.j.j.j.j.j.j.j.j.j.j.j.j.j.j.d.f.d.p.f.d.p.f.p.g.w.d.y.d.j.j.j.j.j.j.j.j.j.j.j.j.j.j.j.j.j.j.j.j.j.j.j.j.j.",
"j.j.j.j.j.j.j.j.j.j.j.j.j.j.j.j.j.j.j.j.j.j.j.y.g.w.w.s.f.w.w.g.w.p.p.g.y.g.d.y.w.j.j.j.j.j.j.j.j.j.j.j.j.j.j.j.j.j.j.j.j.j.j.j.",
"j.j.j.j.j.j.j.j.j.j.j.j.j.j.j.j.j.j.j.j.j.y.d.y.w.d.w.s.w.f.w.w.s.w.s.w.s.y.y.s.y.y.j.j.j.j.j.j.j.j.j.j.j.j.j.j.j.j.j.j.j.j.j.j.",
"j.j.j.j.j.j.j.j.j.j.j.j.j.j.j.j.j.j.j.j.j.w.w.y.d.w.y.y.p.w.w.g.g.w.y.y.w.y.y.y.y.w.d.j.j.j.j.j.j.j.j.j.j.j.j.j.j.j.j.j.j.j.j.j.",
"j.j.j.j.j.j.j.j.j.j.j.j.j.j.j.j.j.j.w.j.j.j.j.y.w.w.w.w.w.w.w.w.w.w.w.w.w.w.w.w.w.j.j.j.w.w.j.j.j.j.j.j.j.j.j.j.j.j.j.j.j.j.j.j.",
"j.j.j.j.j.j.j.j.j.j.j.j.j.j.j.j.8.8.p.6.8.j.j.j.j.6.p.6.p.6.p.w.w.6.w.p.p.6.w.j.j.j.j.p.6.d.6.j.j.j.j.j.j.j.j.j.j.j.j.j.j.j.j.j.",
"j.j.j.j.j.j.j.j.j.j.j.j.j.j.j.6.p.8.8.8.q.8.6.j.j.j.j.6.6.p.6.6.8.6.p.6.6.j.j.j.j.6.6.8.8.8.8.8.6.j.j.j.j.j.j.j.j.j.j.j.j.j.j.j.",
"j.j.j.j.j.j.j.j.j.j.j.j.j.6.6.6.6.6.6.8.6.w.6.6.w.j.j.j.6.6.6.w.6.6.6.6.j.j.j.3.6.6.w.6.6.6.6.6.6.6.6.j.j.j.j.j.j.j.j.j.j.j.j.j.",
"j.j.j.j.j.j.j.j.j.j.j.6.6.6.3.3.3.3.3.3.3.3.6.6.6.3.j.j.j.j.6.6.6.6.j.j.j.6.3.6.6.6.3.3.3.3.3.3.6.3.6.3.3.j.j.j.j.j.j.j.j.j.j.j.",
"j.j.j.j.j.j.j.j.j.1.3.8.3.3.3.3.1.6.3.5.1.6.6.6.3.3.3.3.j.j.j.j.j.j.j.j.1.3.1.3.3.6.3.8.5.5.3.1.3.3.3.3.3.1.j.j.j.j.j.j.j.j.j.j.",
"j.j.j.j.j.j.j.j.,.,.,.,.,.,.1.1.,.,.1.1.1.1.,.,.1.1.1.1.,.j.j.j.j.j.=.6.1.1.1.1.1.,.,.,.1.1.1.1.,.,.1.1.,.6.,.=.j.j.j.j.j.j.j.j.",
"j.j.j.j.j.j.1.1.6.,.,.,.,.%.1.1.,.,.=.1.1.1.+.1.1.%.1.1.j.j.j.j.j.j.j.j.=.1.=.1.1.=.,.,.1.1.1.1.,.%.1.1.,.,.,.3.=.1.j.j.j.j.j.j.",
"j.j.j.j.j.j.j.=.=.=.=.=.-.-.=.=.-.-.=.=.-.-.-.-.,.,.j.j.j.j.=.=.=.=.j.j.j.=.=.,.-.-.=.=.-.=.,.,.,.=.=.-.=.=.=.=.j.j.j.j.j.j.j.j.",
"j.j.j.j.j.j.j.j.j.=.=.=.=.=.=.=.=.=.=.=.=.=.=.=.,.j.j.j.=.=.,.,.=.=.,.j.j.j.j.,.=.=.=.=.=.=.=.,.1.=.=.=.=.=.=.j.j.j.j.j.j.j.j.j.",
"j.j.j.j.j.j.j.j.j.j.j.=.+.=.+.+.=.=.+.+.=.=.+.j.j.j.j.+.+.%.%.%.+.=.%.%.=.j.j.j.j.=.=.+.=.{ +.%.=.1.+.+.=.j.j.j.j.j.j.j.j.j.j.j.",
"j.j.j.j.+.+.j.j.j.j.j.j.j.=.+.+.} =.+.+.} j.j.j.j.+.+.+.+.+.+.+.+.+.+.+.+.+.+.j.j.j.j.=.{ =.+.+.} } =.j.j.j.j.j.j.+.+.+.j.j.j.j.",
"j.j.j.j.+.+.+.( j.j.j.j.j.j.+.+.+.+.+.+.j.j.j.+.+.+.....+.+.+.} +...+.+.{ +.+...} j.j.j.+.+.+...} +.j.j.j.j.j.j.+.....+.j.j.j.j.",
"j.j.j.j.+.+.+.+.+.} j.j.j.j.j.j.+.+.j.j.j.j.+.+.+.+.+.+.} } +.+.+.+.+...+.+.+.+.+.+.j.j.j.j.+.+.j.j.j.j.j.j.+.+.+.+.+.+.j.j.j.j.",
"j.j.j.j.] ......} } } ] j.j.j.j.j.j.j.j...+.+...+.{ +.+.+.+.} } ] +.....{ +.+.+...+.+.] j.j.j.j.j.j.j.j.+.+.+.+.....+.] j.j.j.j.",
"j.j.j.j.( +.] ] } } } } ] j.j.j.j.j.j.{ ( { { ( { ] ( { { } } } ] +.( ..] ] ] { ( { } ] j.j.j.j.j.j.} } ] } ( ] ] ] ] +.j.j.j.j.",
"j.j.j.j.] ] ] ] ] ] R ] ] ] R j.j.j.j.j.j.] ] ] ] ] ^ ] ^ ] ^ ] ( ( ] ] ^ ] ^ ] ] ] ] j.j.j.j.j.j.] } ^ ] ] ] ] ( ( ] ] j.j.j.j.",
"j.j.j.j.I ( ] R R ] ] ^ ^ ] R j.j.j.j.j.j.j.j.] Y ] ^ ^ ] ] ] ^ ( ( ( ( ( ( Q ] ] j.j.j.j.j.j.j.j.Q ] ] ^ ^ R ^ ( ( ( ( j.j.j.j.",
"j.j.j.j.( ] ^ ] ^ ^ R ^ ] Q ( j.j.Q ( j.j.j.j.j.j.( ] ^ ^ ^ ] ] ( ( Q ( ( ( Q j.j.j.j.j.j.( Q j.j.] ^ ^ R ] ] ] ( ( Q ( j.j.j.j.",
"j.j.j.j.Q Q I Y Q ^ ^ R Q ( I j.j.I ( Y j.j.j.j.j.j.Q I ^ I I Y ( Q Q Q Q j.j.j.j.j.j.j.Y ( Q j.j.I Q Q ^ I I ^ ( Q Q Q j.j.j.j.",
"j.j.j.j.Y Y Y Y I ^ Y Y Y Y Y j.j.Y Y Y Y Y j.j.j.j.j.j.Y Y Y Y Y Y Y Y j.j.j.j.j.j.Y Y Y Y Y j.j.Y Y Y Y Y Y Y Y Y Y Y j.j.j.j.",
"j.j.j.j.I Y U Y I I I I Y Y Y j.j.I Y I U U Y J j.j.j.j.j.j.Y Y Y Y j.j.j.j.j.j.J Y Y Y Y Y I j.j.Y Y Y U U U U U U Y Y j.j.j.j.",
"j.j.j.j.I I H Y I I J I U J J j.j.J I I J U J U I H j.j.j.j.j.j.j.j.j.j.j.j.J I J U U J J U I j.j.Y J J J U U J J U H I j.j.j.j.",
"j.j.j.j.H J J J J J J J J J J j.j.H J J J J J J I H H j.j.j.j.j.j.j.j.j.j.H I J J J J J J J J j.j.J J J J J J J J J I J j.j.j.j.",
"j.j.j.j.H H G G G A H A H H J j.j.H H A G G A H H A H H H j.j.j.j.j.j.J H H A H A H A G G G G j.j.H H A A H A H A G H H j.j.j.j.",
"j.j.j.j.j.H H v H H A H m H J j.j.A H H H A H H A H A H H H j.j.j.j.m H H H H A H H H A A H H j.j.H A H H H H A H H H j.j.j.j.j.",
"j.j.j.j.j.j.j.H A A m J A J v j.j.v H m m A A A A A A A v J j.j.j.j.J H A A m A m A A m A A A j.j.A A A A A A H A j.j.j.j.j.j.j.",
"j.j.j.j.j.j.j.j.m m m J m m H j.j.m H z A A A A m A A m V m j.j.j.j.m m A A m A H m A H A m n j.j.A m A m H m v j.j.j.j.j.j.j.j.",
"j.j.j.j.z m j.j.j.j.m m v H m j.j.m m A m m m m m m m A m m j.j.j.j.m m m m m m m m m m m m m j.j.m m m m m j.j.j.m m m j.j.j.j.",
"j.j.j.j.m m m z j.j.j.j.d m d j.j.m m z z m m z m m z z m m j.j.j.j.m m m z z m z m m z z m m j.j.m m m j.j.j.j.m z m m j.j.j.j.",
"j.j.j.j.z z z m z g j.j.j.j.m j.j.m z z m z z z z z z z m g j.j.j.j.g z z z z z m z z m z z m j.j.m j.j.j.j.m m m z m g j.j.j.j.",
"j.j.j.j.d m d g z z m j.j.j.j.j.j.g g z d l d m g z g z m d j.j.j.j.m g z g z z g z g g z g d j.j.j.j.j.m g g m z g m d j.j.j.j.",
"j.j.j.j.g g g g d d d m g j.j.j.j.g g g g g g g d d d m g g j.j.j.j.g g d d d d v g g g g g g j.j.j.j.g d d d d g g g g j.j.j.j.",
"j.j.j.j.g d d d d d d d g g g j.j.j.j.g g g d d d d d d g g j.j.j.j.d g d d d d g g g g g j.j.j.j.d g d d d d d d d d d j.j.j.j.",
"j.j.j.j.u u u g a a d i a a u j.j.j.j.j.u u u a d a d i a a j.j.j.j.d u d a d i g a u j.j.j.j.j.j.g a g d g i d d d u g j.j.j.j.",
"j.j.j.j.u u u u u u u u u u u j.j.u u j.j.j.u u i u u u u u j.j.j.j.u u u u u i u u j.j.j.u u j.j.u u a a a u u 8 d 8 g j.j.j.j.",
"j.j.j.j.u i u u u u 9 u u u u j.j.u u u j.j.j.j.u u u u u u j.j.j.j.u u 9 u u u j.j.j.j.u u u j.j.u u 9 u u 9 u u u u u j.j.j.j.",
"j.j.j.j.9 u 9 9 u u u 9 9 u 9 j.j.9 9 u u 9 j.j.j.j.5 9 9 u j.j.j.j.u 9 5 5 j.j.j.j.3 u u 9 u j.j.u 9 u u 9 u 9 9 u 9 9 j.j.j.j.",
"j.j.j.j.9 9 9 u u 3 u 9 9 9 9 j.j.u 9 9 9 9 u 9 j.j.j.u 5 9 j.j.j.j.u u j.j.j.j.8 u 9 u 9 9 9 j.j.9 9 9 3 u u 9 9 9 3 u j.j.j.j.",
"j.j.j.j.5 9 9 9 9 3 3 9 9 9 9 j.j.1 u 3 9 3 9 9 9 j.j.j.j.5 j.j.j.j.3 j.j.j.9 9 9 3 3 9 9 9 3 j.j.u 3 9 u 3 3 9 9 9 u 3 j.j.j.j.",
"j.j.j.j.9 1 9 1 9 , 5 2 5 5 5 j.j.3 3 9 1 9 1 5 5 5 5 j.j.j.j.j.j.j.j.j.j.3 1 1 5 5 5 1 9 3 3 j.j.3 9 1 5 5 5 5 5 5 9 1 j.j.j.j.",
"j.j.j.j.j.j., 1 1 1 1 1 , 1 1 j.j.1 3 1 1 , 1 1 1 1 1 1 1 j.j.j.j.j.j.1 1 1 1 1 , 1 1 1 1 1 1 j.j.1 1 1 1 1 , 1 1 1 j.j.j.j.j.j.",
"j.j.j.j.j.j.j.j., , 1 , 1 , , j.j., 1 1 , 1 , 1 1 , , 1 , , j.j.j.j.1 , 1 1 1 , , 1 1 , , , 1 j.j.1 , , , , , 1 j.j.j.j.j.j.j.j.",
"j.j.j.j.j.j.j.j.j., , , , , , j.j., , , , , , , , , , , , , j.j.j.j., , , , , , = , , , , , 1 j.j., , , , , , j.j.j.j.j.j.j.j.j.",
"j.j.j.j.j.j.j.j.j.j.j., = , = j.j., , , , , , , = = , + , = j.j.j.j., , , + , , = = = = , , + j.j., , + , j.j.j.j.j.j.j.j.j.j.j.",
"j.j.j.j.j.j.j.j.j.j.j.j.j., , j.j.+ + + + + + , , = , + + + j.j.j.j.. , , , + + , = , # + , + j.j., , j.j.j.j.j.j.j.j.j.j.j.j.j.",
"j.j.j.j.j.j.j.j.j.j.j.j.j.j.j.j.j., # , , @ # # @ , @ , , , j.j.j.j., @ # # , # # , @ # @ # , j.j.j.j.j.j.j.j.j.j.j.j.j.j.j.j.j.",
"j.j.j.j.j.j.j.j.j.j.j.j.j.j.j.j.j.# @ . , . # # @ @ @ # + @ j.j.j.j., @ # # @ # @ # # # , # . j.j.j.j.j.j.j.j.j.j.j.j.j.j.j.j.j.",
"j.j.j.j.j.j.j.j.j.j.j.j.j.j.j.j.j.j.# # # + + + + + + + + # j.j.j.j.+ + + + + + # + + + + + j.j.j.j.j.j.j.j.j.j.j.j.j.j.j.j.j.j.",
"j.j.j.j.j.j.j.j.j.j.j.j.j.j.j.j.j.j.j.j.+ + @ @ @ @ @ @ # # j.j.j.j.@ @ @ @ @ @ @ # . # j.j.j.j.j.j.j.j.j.j.j.j.j.j.j.j.j.j.j.j.",
"j.j.j.j.j.j.j.j.j.j.j.j.j.j.j.j.j.j.j.j.j.+ . #   # X # . # j.j.j.j.. # # # . # @ . j.j.j.j.j.j.j.j.j.j.j.j.j.j.j.j.j.j.j.j.j.j.",
"j.j.j.j.j.j.j.j.j.j.j.j.j.j.j.j.j.j.j.j.j.j.j..     #       j.j.j.j.. .   .     . j.j.j.j.j.j.j.j.j.j.j.j.j.j.j.j.j.j.j.j.j.j.j.",
"j.j.j.j.j.j.j.j.j.j.j.j.j.j.j.j.j.j.j.j.j.j.j.j.j.#   X #   j.j.j.j.  #   # X j.j.j.j.j.j.j.j.j.j.j.j.j.j.j.j.j.j.j.j.j.j.j.j.j.",
"j.j.j.j.j.j.j.j.j.j.j.j.j.j.j.j.j.j.j.j.j.j.j.j.j.j.j.    # j.j.j.j.  .   j.j.j.j.j.j.j.j.j.j.j.j.j.j.j.j.j.j.j.j.j.j.j.j.j.j.j.",
"j.j.j.j.j.j.j.j.j.j.j.j.j.j.j.j.j.j.j.j.j.j.j.j.j.j.j.j.    j.j.j.j.  j.j.j.j.j.j.j.j.j.j.j.j.j.j.j.j.j.j.j.j.j.j.j.j.j.j.j.j.j.",
"j.j.j.j.j.j.j.j.j.j.j.j.j.j.j.j.j.j.j.j.j.j.j.j.j.j.j.j.j.j.j.j.j.j.j.j.j.j.j.j.j.j.j.j.j.j.j.j.j.j.j.j.j.j.j.j.j.j.j.j.j.j.j.j."
};
