/* XPM */
static char *_ccad94f11db4f53b6b20d4b681e3746[] = {
/* columns rows colors chars-per-pixel */
"32 32 74 1 ",
"  c #408E9E",
". c #418F9F",
"X c #42909F",
"o c #43909F",
"O c #4290A0",
"+ c #4491A0",
"@ c #4591A0",
"# c #4591A1",
"$ c #4691A1",
"% c #4592A1",
"& c #4692A1",
"* c #4792A2",
"= c #4793A2",
"- c #4893A2",
"; c #4993A2",
": c #4994A3",
"> c #4B95A3",
", c #4B95A4",
"< c #4C95A4",
"1 c #4D96A5",
"2 c #4E96A5",
"3 c #4F97A6",
"4 c #5098A6",
"5 c #5198A7",
"6 c #5199A7",
"7 c #5299A7",
"8 c #539AA8",
"9 c #549AA8",
"0 c #549BA9",
"q c #559BA9",
"w c #579CAA",
"e c #579CAB",
"r c #599CAA",
"t c #589CAB",
"y c #599DAB",
"u c #5A9DAB",
"i c #5B9EAB",
"p c #5C9EAC",
"a c #5C9FAC",
"s c #5DA0AD",
"d c #5EA0AD",
"f c #5FA0AD",
"g c #5FA0AE",
"h c #60A0AE",
"j c #60A1AE",
"k c #60A1AF",
"l c #62A2B0",
"z c #64A3B1",
"x c #66A4B1",
"c c #66A4B2",
"v c #67A5B2",
"b c #68A5B2",
"n c #6AA6B3",
"m c #6AA7B3",
"M c #6AA7B4",
"N c #6CA7B5",
"B c #6DA7B5",
"V c #6BA8B4",
"C c #6DA8B5",
"Z c #6EA8B5",
"A c #6DA8B6",
"S c #6EA8B6",
"D c #6EA9B6",
"F c #6FA9B6",
"G c #6FAAB6",
"H c #70AAB6",
"J c #70AAB7",
"K c #71ABB7",
"L c #72ABB7",
"P c #72ABB8",
"I c #72ACB8",
"U c #73ACB9",
"Y c #74ACB9",
"T c None",
/* pixels */
"TTTTTTTTTTTTTTTYTTTTTTTTTTTTTTTT",
"TTTTTTTTTTTTTTYYYYTTTTTTTTTTTTTT",
"TTTTTTTTTTTTIYILIYIPTTTTTTTTTTTT",
"TTTTTTTTTTTJJLJLJLLJITTTTTTTTTTT",
"TTTTTTTTTDTTJJJJJJJJTTJTTTTTTTTT",
"TTTTTTTDJDJDTTDDDJTTDDDDDTTTTTTT",
"TTTTTDDNDmNDDMTDTTNDDNDDDNDTTTTT",
"TTTMVVVVDmmDmNTTTTDnMDnmVVVVTTTT",
"TTTTVnnnnnmnMTTnMTTVnmnnnmMMTTTT",
"TTxTTTnnxnnTTnnxnMxTTnxnnxTTTxTT",
"TTxxTTTTxTTxxxxxzxxcxTTxTTTxxxTT",
"TTzzzzTTTTxlzzzxzzlxlxTTTTxllxTT",
"TTllllkkTTTlllzkllllzTTTzkzkllTT",
"TTkkkkkkTsTTTkkkkkkTTTkTkkkklsTT",
"TTsssssTTssTTTTssTTTsssTsjssksTT",
"TTppsaaaTpsppTTTTTTpaaaTaapsppTT",
"TTttstttTstttttTTtattttTtsttatTT",
"TTTTettTTttetetTTttteetTeteeTTTT",
"TTeTTTe7Tee9eeqTTqqqeeeTeeTTqqTT",
"TT7e7TTTT79997eTT999707TTTTq9qTT",
"TT77777TT777777TT7q7777TT77777TT",
"TT<73333TTT337<TT3<7<TTT7333<7TT",
"TT3<3<3TT<TT<<<TT<<TTT<T,<<3<<TT",
"TT,,,,:,T,,,TT<TT<TT<<<T,,,<<,TT",
"TTT,:,,-T::---TTTT:-,-:T,,,,:TTT",
"TTTT%%%TT------TT---%-%T=%%-TTTT",
"TTTTTT%%T%%%%%oTT%%%%-%T%%TTTTTT",
"TTTTTTTTT%o%%%%TT%o%o%%TTTTTTTTT",
"TTTTTTTTTXXXOOXTTXOOOXTTTTTTTTTT",
"TTTTTTTTTTT....TT....TTTTTTTTTTT",
"TTTTTTTTTTTTT..TT..TTTTTTTTTTTTT",
"TTTTTTTTTTTTTTTTTTTTTTTTTTTTTTTT"
};
