/* XPM */
static char *_fe5c8c2431d4431f3442f4583885c45[] = {
/* columns rows colors chars-per-pixel */
"128 128 19 1 ",
"  c #3F8D9D",
". c #418F9F",
"X c #43909F",
"o c #428FA0",
"O c #4591A1",
"+ c #4B95A4",
"@ c #4F98A6",
"# c #5097A6",
"$ c #5199A6",
"% c #549AA9",
"& c #5A9EAB",
"* c #5EA0AD",
"= c #61A1AF",
"- c #64A3B1",
"; c #6AA6B4",
": c #6DA9B6",
"> c #71ABB7",
", c #72ABB8",
"< c None",
/* pixels */
"<<<<<<<<<<<<<<<<<<<<<<<<<<<<<<<<<<<<<<<<<<<<<<<<<<<<<<<<<<<<<<<<<<<<<<<<<<<<<<<<<<<<<<<<<<<<<<<<<<<<<<<<<<<<<<<<<<<<<<<<<<<<<<<<",
"<<<<<<<<<<<<<<<<<<<<<<<<<<<<<<<<<<<<<<<<<<<<<<<<<<<<<<<<<<<<<<<,,<<<<<<<<<<<<<<<<<<<<<<<<<<<<<<<<<<<<<<<<<<<<<<<<<<<<<<<<<<<<<<<",
"<<<<<<<<<<<<<<<<<<<<<<<<<<<<<<<<<<<<<<<<<<<<<<<<<<<<<<<<<<<<<,,,,,<<<<<<<<<<<<<<<<<<<<<<<<<<<<<<<<<<<<<<<<<<<<<<<<<<<<<<<<<<<<<<",
"<<<<<<<<<<<<<<<<<<<<<<<<<<<<<<<<<<<<<<<<<<<<<<<<<<<<<<<<<<<<,,,,,,,,<<<<<<<<<<<<<<<<<<<<<<<<<<<<<<<<<<<<<<<<<<<<<<<<<<<<<<<<<<<<",
"<<<<<<<<<<<<<<<<<<<<<<<<<<<<<<<<<<<<<<<<<<<<<<<<<<<<<<<<<<,,,,,,,,,,,,<<<<<<<<<<<<<<<<<<<<<<<<<<<<<<<<<<<<<<<<<<<<<<<<<<<<<<<<<<",
"<<<<<<<<<<<<<<<<<<<<<<<<<<<<<<<<<<<<<<<<<<<<<<<<<<<<<<<<,,,,,,,,,,,,,,,,<<<<<<<<<<<<<<<<<<<<<<<<<<<<<<<<<<<<<<<<<<<<<<<<<<<<<<<<",
"<<<<<<<<<<<<<<<<<<<<<<<<<<<<<<<<<<<<<<<<<<<<<<<<<<<<<<>,,,,,,,,,,,,,,,,,,<<<<<<<<<<<<<<<<<<<<<<<<<<<<<<<<<<<<<<<<<<<<<<<<<<<<<<<",
"<<<<<<<<<<<<<<<<<<<<<<<<<<<<<<<<<<<<<<<<<<<<<<<<<<<<<,,,,,,,,,,,,,,,,,,,,,,<<<<<<<<<<<<<<<<<<<<<<<<<<<<<<<<<<<<<<<<<<<<<<<<<<<<<",
"<<<<<<<<<<<<<<<<<<<<<<<<<<<<<<<<<<<<<<<<<<<<<<<<<<<,>,,,,,,,,,,,,,,,,,,,,,,,,<<<<<<<<<<<<<<<<<<<<<<<<<<<<<<<<<<<<<<<<<<<<<<<<<<<",
"<<<<<<<<<<<<<<<<<<<<<<<<<<<<<<<<<<<<<<<<<<<<<<<<<,,,,,,,,,,,,,,,,,,,,,,,,,,,,,<<<<<<<<<<<<<<<<<<<<<<<<<<<<<<<<<<<<<<<<<<<<<<<<<<",
"<<<<<<<<<<<<<<<<<<<<<<<<<<<<<<<<<<<<<<<<<<<<<<<>,,,,>,,,,,,,,,,,,,,,,,,,,,,,,,,,<<<<<<<<<<<<<<<<<<<<<<<<<<<<<<<<<<<<<<<<<<<<<<<<",
"<<<<<<<<<<<<<<<<<<<<<<<<<<<<<<<<<<<<<<<<<<<<<<,:,,,,,,,,,,,>>>>>,,,,,,,,,,,,,,,,>><<<<<<<<<<<<<<<<<<<<<<<<<<<<<<<<<<<<<<<<<<<<<<",
"<<<<<<<<<<<<<<<<<<<<<<<<<<<<<<<<<<<<<<<<<<<<:,,,,>,,,>,,,,,,,,,,,,,,,,,,,,,,,,,,,,,,<<<<<<<<<<<<<<<<<<<<<<<<<<<<<<<<<<<<<<<<<<<<",
"<<<<<<<<<<<<<<<<<<<<<<<<<<<<<<<<<<<<<<<<<<>>,,:,,>>>>>:,>,>,>>,:,,,,,,,,,,,,,,,,:,,:,<<<<<<<<<<<<<<<<<<<<<<<<<<<<<<<<<<<<<<<<<<<",
"<<<<<<<<<<<<<<<<<<<<<<<<<<<<<<<<<<<<<<<<<<>>,,,,>>,,,,,:,>>,,,,,,,,,,,,,,,,,,,,,,,,,,,<<<<<<<<<<<<<<<<<<<<<<<<<<<<<<<<<<<<<<<<<<",
"<<<<<<<<<<<<<<<<<<<<<<<<<<<<<<<<<<<<<<<<<<<<,,,,>>>>>,,,>>,:,:,,,,,,,,,,,,,,,,,,,,:,<<<<<<<<<<<<<<<<<<<<<<<<<<<<<<<<<<<<<<<<<<<<",
"<<<<<<<<<<<<<<<<<<<<<<<<<<<<<<<<<<<<<,<<<<<<<,,,>>>>:>,,>>>>>>>>,,>>>>>>>>>>>>>>>><<<<<<<<,<<<<<<<<<<<<<<<<<<<<<<<<<<<<<<<<<<<<<",
"<<<<<<<<<<<<<<<<<<<<<<<<<<<<<<<<<<<,,,,;<<<<<<<:>>>>>>>:>:>>:>>:>>>>>>>>:>>>>>>>><<<<<<<:,,,<<<<<<<<<<<<<<<<<<<<<<<<<<<<<<<<<<<<",
"<<<<<<<<<<<<<<<<<<<<<<<<<<<<<<<<<<:,,:,:,<<<<<<<<>,,>>,,>>>>>>>>>>>>>>>>>>>>:>><<<<<<<>>,::,,:<<<<<<<<<<<<<<<<<<<<<<<<<<<<<<<<<<",
"<<<<<<<<<<<<<<<<<<<<<<<<<<<<<<<<:,::,,:,,,,<<<<<<<<::>::>:>:>>>>>>>>::>>:>>>:<<<<<<<>:>>:,:,,,,:<<<<<<<<<<<<<<<<<<<<<<<<<<<<<<<<",
"<<<<<<<<<<<<<<<<<<<<<<<<<<<<<<::::::::,:::,::<<<<<<<:::,:::::::::::::>:::::<<<<<<<<:>>::::::::::>:<<<<<<<<<<<<<<<<<<<<<<<<<<<<<<",
"<<<<<<<<<<<<<<<<<<<<<<<<<<<<::::::,::::::::::,:<<<<<<<::::>:::>:::>:::>:>><<<<<<<::::::::::::,::>:><<<<<<<<<<<<<<<<<<<<<<<<<<<<<",
"<<<<<<<<<<<<<<<<<<<<<<<<<<<>>>>>:,:,,,::::,::,::<<<<<<<<::::>>:>>>>:>>::<<<<<<<>:,,::,::,,:,,,:,>>>::<<<<<<<<<<<<<<<<<<<<<<<<<<<",
"<<<<<<<<<<<<<<<<<<<<<<<<<:::::>:,:::::::,::::::,>><<<<<<<::::::>:::>:><<<<<<<<:::::::::::::::::::::>:>><<<<<<<<<<<<<<<<<<<<<<<<<",
"<<<<<<<<<<<<<<<<<<<<<<<::::::::::::::;:::,,:::::::::<<<<<<<:::::::::<<<<<<<<::::::,,;,;:::::::::::;:::::<<<<<<<<<<<<<<<<<<<<<<<<",
"<<<<<<<<<<<<<<<<<<<<<::::::::::::::::,::;:;:,:::::::::<<<<<<<::::::<<<<<<<:::::::::::,,;::::::::::,;,;::;:<<<<<<<<<<<<<<<<<<<<<<",
"<<<<<<<<<<<<<<<<<<<<,;;:::::::::::::;:::;,:::::;::;:::><<<<<<<<::<<<<<<<;:::::::;,:::;;::::::::;:::,::::::::<<<<<<<<<<<<<<<<<<<<",
"<<<<<<<<<<<<<<<<<<::::;;::;:;;::::;;::::;;;;:;:;:::;:::;:<<<<<<<<<<<<<<;:;::;;::;;;;;,;;::::;::::;;;;;:::;;;::<<<<<<<<<<<<<<<<<<",
"<<<<<<<<<<<<<<<<;;;:;:::;:;;:::::;::::::;::::;::;:;::::;;;;<<<<<<<<<<::::;::;:::,;::;::::::;::;::::::;::::;:;::<<<<<<<<<<<<<<<<<",
"<<<<<<<<<<<<<<::::::::;;:;;::;;;:::;;;;;:;:;;:;:::;;:;;;:::<<<<<<<<<<:;:::;;;;;;;;:;::;;;;;:;;::;;;;;:;;::;:;;:;:<<<<<<<<<<<<<<<",
"<<<<<<<<<<<<<;;;;;;;;;;:;;;;;;;;;;;;;;;;:;;;;;;;;;;;;:;;:<<<<<<<<<<<<<::-;:;;;;:;;;:;;;;;;;;;;;;:;::;;;;;;;;;;:;;:;<<<<<<<<<<<<<",
"<<<<<<<<<<<<;;;;::;;:;;;;::;;;;;;;;;;;;;;;:;;;;:;;;;;;:<<<<<<<<;<<<<<<<<;:;:;;;;;;;;;;;;;;;;;;;:;;;;;;;;;:;;;;;;:;;<<<<<<<<<<<<<",
"<<<<<<<<<<<<<<::;;;;;:;;;:;;;:;;;:;;;;:;;;;;;;:;;;:;;;<<<<<<<;;;;;<<<<<<<<;;;;:;;;;;;;:;;;;;;;:;;;;;;;;;;;;;;:;;;;<<<<<<<<<<<<<<",
"<<<<<<<<<<<<<<<<;;;;;;;;;;;:;;;;;;;;;;;;;;;;:;;;;;-:<<<<<<<;-;;;;;;;<<<<<<<<;;;;;;;:;;;;::;::;;;;;;;;;;;;;;;;;;;<<<<<<<<<<<<<<<<",
"<<<<<<<<<<<<<<<<<;;;;;;;;;;;;;;;;;;:;;;;;;;;;;;;;;<<<<<<<<;;;;;;;;;;;;<<<<<<<;;;;;;;;;;;;;;;;;;;;;;;;;;;;;;;;;<<<<<<<<<<<<<<<<<<",
"<<<<<<<<<<<<<<<<<<<;;;;;-;;;-;;;;;;;;;-;;;;;;;;;;<<<<<<<;-;;;;;;;;;;;;;;<<<<<<<;;;-;;;;;;--;;;;;;;;;;;;;;;;;;<<<<<<<<<<<<<<<<<<<",
"<<<<<<<<<<<<<<<<<<<<<;;;;-;-;--;;--;-;-;;-;;;;;<<<<<<<--;--;;--;;;-;-;--;<<<<<<<<:;;;-;--;-;-;--;--;-:-;;;-<<<<<<<<<<<<<<<<<<<<<",
"<<<<<<<<;;<<<<<<<<<<<<-;;;;-;;;;;-----;-;;-:;<<<<<<<<-;;;;;;-;;----;;-;;;;;<<<<<<<-;;;;-;--;;;;-;;;-;-;--<<<<<<<<<<<<;;<<<<<<<<<",
"<<<<<<<<-;--<<<<<<<<<<<<-;-;--;-;;;;;;;;-;:<<<<<<<<-;;;;--;-;;;;;;;-;;;;-;-;-<<<<<<<;;-;-;;-;-;----:-;-<<<<<<<<<<<<<-;-<<<<<<<<<",
"<<<<<<<<---:--<<<<<<<<<<<<;-;--;---;;-----<<<<<<<;;;-;---;-;------;-------;--;;<<<<<<<--;-;--;-;-;;--;<<<<<<<<<<<<;-;-;<<<<<<<<<",
"<<<<<<<<---;-;-<<<<<<<<<<<<<----;--;----<<<<<<<;-;-;;--;--;-;--;---;--;---;-;---<<<<<<<<-;---------;<<<<<<<<<<<<---;---<<<<<<<<<",
"<<<<<<<<---;--;--<<<<<<<<<<<<;-;-----;<<<<<<<<----------;--;----;-;---;-;---;-;--;<<<<<<<--;-;;-;-<<<<<<<<<<<<-;;;--;-;<<<<<<<<<",
"<<<<<<<<-----;-----<<<<<<<<<<<<;--;-<<<<<<<<-;-;;--;;--;----------;-----;-----;--;--<<<<<<<--;--<<<<<<<<<<<<<----------<<<<<<<<<",
"<<<<<<<<--;------;---<<<<<<<<<<<<--<<<<<<<;-----------------;-;-----;;----------;---;<<<<<<<<--<<<<<<<<<<<<--;;----;---<<<<<<<<<",
"<<<<<<<<--------------<<<<<<<<<<<<<<<<<<=----------------------------------------------<<<<<<<<<<<<<<<<<<--------------<<<<<<<<<",
"<<<<<<<<=-------=------=<<<<<<<<<<<<<<<--------------------------------------------------<<<<<<<<<<<<<<----=-----------<<<<<<<<<",
"<<<<<<<<=----------------=<<<<<<<<<<<<----------=--=---=----------=-------=-----------=--<<<<<<<<<<<<<-----------------<<<<<<<<<",
"<<<<<<<<=-=------==----=---=<<<<<<<<<<<<-=-=----------------=--=----==-------=-=-==---=-<<<<<<<<<<<<=---=-----==------=<<<<<<<<<",
"<<<<<<<<=-==-=---------====-=<<<<<<<<<<<<<=--===---------===-=-*=---====-=-=----==;=--<<<<<<<<<<<<-==-==--=-=-===---===<<<<<<<<<",
"<<<<<<<<==--=-==-=-==--=--==--<<<<<<<<<<<<<=-=--=--===-=----=--==--=------===-==--==<<<<<<<<<<<<<-=--==--=-=----=--=---<<<<<<<<<",
"<<<<<<<<==============*=======<<<<<<<<<<<<<<<=========*=-*===---===================<<<<<<<<<<<<<<-=====-========*-*====<<<<<<<<<",
"<<<<<<<<======================<<<<<<<<<<<<<<<<<=============-&*==================<<<<<<<<<<<<<<<<==-==*=========**-*===<<<<<<<<<",
"<<<<<<<<======================<<<<==<<<<<<<<<<<<<-===========================-=<<<<<<<<<<<<==<<<<=====-=========--=====<<<<<<<<<",
"<<<<<<<<&=======-============-<<<<*=-=<<<<<<<<<<<<=-=========================<<<<<<<<<<<<<===<<<<--==============*=====<<<<<<<<<",
"<<<<<<<<========*===*=========<<<<&====&<<<<<<<<<<<<*-================*===-=<<<<<<<<<<<<=====<<<<=====*-=*=*==***======<<<<<<<<<",
"<<<<<<<<=&==&*=*******====&==&<<<<=&=&===&<<<<<<<<<<<<==*=*=&=**=**=*==**=<<<<<<<<<<<<&=*****<<<<*=******-**=****=**=&=<<<<<<<<<",
"<<<<<<<<=&=*****************=*<<<<&=****=**<<<<<<<<<<<<<************=&*=<<<<<<<<<<<<&*****&==<<<<==********************<<<<<<<<<",
"<<<<<<<<&=*=*************=&=*=<<<<&=*********<<<<<<<<<<<<*********=**=<<<<<<<<<<<<<*****=*===<<<<=&****=************=**<<<<<<<<<",
"<<<<<<<<&***************=&=*=&<<<<&=*********&&<<<<<<<<<<<<**==***=*&<<<<<<<<<<<<*&***==***&&<<<<&-=**************==***<<<<<<<<<",
"<<<<<<<<&*&&***=*****&**&**&&=<<<<&&*&*&*&***&*&<<<<<<<<<<<<<*&&&*&<<<<<<<<<<<<******&&**&***<<<<=&&&*&**&*****&&*&*&*&<<<<<<<<<",
"<<<<<<<<&=***&&&&&&*&**&***&**<<<<&**********&***&<<<<<<<<<<<<&**<<<<<<<<<<<<<*&**&**&***&*&&<<<<&********&&&******&**&<<<<<<<<<",
"<<<<<<<<&&&*****&**&*&&**&&=&&<<<<&**&&**&*&&***=&&&<<<<<<<<<<<<<<<<<<<<<<<<&*&*&**&&*&*&*&*=<<<<*&&*&*&&*****&****&&=*<<<<<<<<<",
"<<<<<<<<&&&&&&&&&&*&&&&*&&&&*&<<<<&&&&&*&&&*&&&&&&&&&&<<<<<<<<<<<<<<<<<<<<&*&&&&&&&&&&&&&&&&&<<<<&&*&*&&*&&&&&&&&&&&&&&<<<<<<<<<",
"<<<<<<<<&&&*&&&&*&&*&*&&&&*&&&<<<<&&&&&&&&&&&*&&&&*&*&&<<<<<<<<<<<<<<<<<&&&&&&&**&&*&*&&*&***<<<<&&&&&&&&&&*&&*&&&&**&&<<<<<<<<<",
"<<<<<<<<&&&&&&&&&&&&&&&&&&%&&&<<<<&&&&&&&&&&&&&&&&&&&&&&%<<<<<<<<<<<<<<&&&&&&&&%&&&&&&&&&&&&&<<<<&&&&&&&&&&&&&&&&&&&&&&<<<<<<<<<",
"<<<<<<<<%&&&&&&&&&&&&&&&&&&&&&<<<<&&&&&&&&&&&&&&&&&&&&&&&&&<<<<<<<<<<&&&&&&&&&&&&&&&&&&&&&&&&<<<<&&&&&&&&&&&&&&&&&&&&&%<<<<<<<<<",
"<<<<<<<<<&&&&&&&&&&&&&&&&&&&&&<<<<%&&&&&&&&%&&&&&&&&&&&&&&&&<<<<<<<&&&&&&&&&&&&&%&&%&&&&&&&&&<<<<&&&&&&&&&&&&&&&&&&&&&&<<<<<<<<<",
"<<<<<<<<<<<%&&&&&&%&&&&&&&&&&&<<<<&&%&&&&&&&&%&&&%&%&&%&&&&&<<<<<<<&%&&&&%&&&&&&&&&&&&%&&&%&*<<<<&&&%&&&&%&&&&&%&%&&&<<<<<<<<<<<",
"<<<<<<<<<<<<%&%%%&%&%&%%&&%&&%<<<<&&&%&%%&&%&&%%&%&%&&%&&%%&<<<<<<<&%&%&&%&&&&%&&%&&%&%&&%&%&<<<<%&%&%&%&%&&%%&%%&&<<<<<<<<<<<<<",
"<<<<<<<<<<<<<<%&&%&%&&&&%&%%&%<<<<%&%&%&&%&%%&&&%&&&%&%&&&&%<<<<<<<&&&&%&&%%&%&%&%%&&%&%&&&%&<<<<&%&%&%&&%%&&&&&&%<<<<<<<<<<<<<<",
"<<<<<<<<<<<<<<<<%&%&&%%&&%&&&%<<<<%&&%&&&&&%&%&%&%%&&%%%%&&%<<<<<<<&%&%&%&%&&%&%&%&&&%&&%%&&%<<<<&&&&%&&%&&&&%&%<<<<<<<<<<<<<<<<",
"<<<<<<<<%%<<<<<<<<%%%&%%%&%%&&<<<<%%%&%%%%%&%%&&%&%%%&&&&%%%<<<<<<<%%%&%%%&%%&%%&%%%&%%&%&&%&<<<<%%%%&%%&%%%%%<<<<<<<<&<<<<<<<<<",
"<<<<<<<<%&%%<<<<<<<%%%%&%&%%&%<<<<%%%&%%%&%%&%&%%&%&%%&%&%%&<<<<<<<%%&%%%%&%%&%%%&%%&%%%%&%%%<<<<%&%%&%%&%%&<<<<<<<<%%%<<<<<<<<<",
"<<<<<<<<%%%%%<<<<<<<<%%%%%%%%%<<<<%&%%%%%%%%%%%%%%%%%%%%%%%%<<<<<<<&%%%%%%%%%%%%%%%%%%%%%%%&%<<<<%%%%%%%%%%<<<<<<<&%%%&<<<<<<<<<",
"<<<<<<<<%%%%%&%<<<<<<<<%%&%%%%<<<<%%%%%%%%&%%%%%%&%%%%%%%%%%<<<<<<<%%%%%&%%%%%%%%%&%%%%%%%%%&<<<<%%&%%%%&<<<<<<<&%%%&%%<<<<<<<<<",
"<<<<<<<<$%%%%%%%%<<<<<<<<%%%%$<<<<%%%%%%%%%%%%%%%%%%%%%%&%%#<<<<<<<%%%%%%%%%%%%%%%%%%%%%%%%%%<<<<%%%%%&<<<<<<<<%%%%%%%%<<<<<<<<<",
"<<<<<<<<%%%%%%%%%%%<<<<<<<%%%%<<<<%%%%%%%%%#%%%%%%%%%%%%%%%%<<<<<<<&%%%%%%%%%%%%%%%%%%%%%%%$%<<<<%%%%<<<<<<<<%%%%%%%%%%<<<<<<<<<",
"<<<<<<<<$%%%$%$%%%%%<<<<<<<<%%<<<<#%%%%%%%%%%%%%%%%%%%%%%%%%<<<<<<<%%%%%%%@%%%%%%%%#%%%%%%%%%<<<<%%%<<<<<<<%%%%%%%%%%%%<<<<<<<<<",
"<<<<<<<<%$%%%%#%#$%#%#<<<<<<<<<<<<%%@%%%%##%#%%%%@@@%@%%%#%%<<<<<<<%%%%%@%%%%%%%#%#%#%%%%%%%%<<<<<<<<<<<<%##%%##%@%@%#%<<<<<<<<<",
"<<<<<<<<#%$%$%%%%%#%%#%%<<<<<<<<<<@%%%@%%%%#%%@%%%%%%%%%%#%%<<<<<<<%%@%@%%%@%%%%%%%@%%%@%@%%%<<<<<<<<<<<%%%%%%%%%%%%%%%<<<<<<<<<",
"<<<<<<<<%%%@%@%#@$$$$$%@%<<<<<<<<<%%%@%@%%%%@%@%%@%@%%@%@%%@<<<<<<<%%@%%@%@@#$%@%@@%@%%@@%@%@<<<<<<<<<%$%%@%#@@%@%@%@%@<<<<<<<<<",
"<<<<<<<<##%%@%@%%%$$$%@%%@%<<<<<<<<##%@%%@@%%@%@@%@%%@%%%@@%<<<<<<<%@%%@%%%%$$@%%%%%%@@%%%%@%<<<<<<<%$$#@@%%$%%@%#%@%%%<<<<<<<<<",
"<<<<<<<<%%###%%@%@%#%%@@@#%#+<<<<<<<<%%#@##@@#@%%#@#@@@###@%<<<<<<<##%#@@@%%%@%@@%@@%@@%##%<<<<<<<<%%%%#@%@@%@%%##@@#@%<<<<<<<<<",
"<<<<<<<<+#%#@@%@$$#$$$$%%@%@%%<<<<<<<<#%@%@%%%@@@%@%@%%@@%@#<<<<<<<%@@%@%@@$%@@%@@%@#%@#%<<<<<<<<%@%@@$$@@%@@%$#@%@%@%#<<<<<<<<<",
"<<<<<<<<@###@@@@######@@#@@%+@<<<<<<<<<<#@@##@@@@@@@###@@%%+<<<<<<<@@@@@####@@@@@@@@#@@#<<<<<<<<<@%#####@@%+####@%+%@@@<<<<<<<<<",
"<<<<<<<<+@@@####@@@@##+@###@%+<<<<<<<<<<<<#%########@@@@##@@<<<<<<<+#######@##########<<<<<<<<<<<###@@@@@##@@@@@##%+%+%<<<<<<<<<",
"<<<<<<<<+#####@@######@@@@@@@#<<<<##<<<<<<<#+#@@@@@@##@##@@#<<<<<<<%@@@@+###@@@@@@##<<<<<<<<@<<<<++@##########@@+@@@+##<<<<<<<<<",
"<<<<<<<<+#%+@+%+@@@@@#@@###+++<<<<+##+<<<<<<<+@+######@@+@#+<<<<<<<#####%+@+%+###+<<<<<<<<###<<<<##@@@@##+@@+%+@@####+#<<<<<<<<<",
"<<<<<<<<####+#+#@+@@+@@@+#+###<<<<++@@++<<<<<<<###+#+#@+#++#<<<<<<<###+#+@#+#+##+<<<<<<<##+##<<<<##+#@#+@+@@+@@@+#+#+##<<<<<<<<<",
"<<<<<<<<++++@++@@++@@++@+@+++#<<<<+@+@@@#<<<<<<<<##+++@++#+#<<<<<<<#+++@@+@++#+<<<<<<<#+#+++@<<<<@#+++@+@++@@++@@@+@++#<<<<<<<<<",
"<<<<<<<<+#+#+++@+@+++@@+@++#++<<<<+++@+++++<<<<<<<+##++##+++<<<<<<<###+##@+@#<<<<<<<<++@+#@++<<<<+#++@+@+@+@+@@+++#+#++<<<<<<<<<",
"<<<<<<<<+++++++++@+++++++++#++<<<<+++++++#+++<<<<<<<+++++++#<<<<<<<++++++++<<<<<<<<#++++++++@<<<<#+++++++@++++++++++++#<<<<<<<<<",
"<<<<<<<<++++++@+++++++++#+++++<<<<+#++++++++#+<<<<<<<<+#++++<<<<<<<#++++++<<<<<<<#+++++@+++++<<<<++++++@++++@+++@++++++<<<<<<<<<",
"<<<<<<<<++++@+++++++++++++++++<<<<++++++++++++++<<<<<<<<++++<<<<<<<+++++<<<<<<<<+++++++++++++<<<<+++++++O++++++++++++++<<<<<<<<<",
"<<<<<<<<O+++++++++++++++++++++<<<<+++++++++++++++O<<<<<<<+++<<<<<<<+++<<<<<<<<+++++++++++++O+<<<<+O+++++++O+++O++O+++++<<<<<<<<<",
"<<<<<<<<O+++X+++O++++++O+++O++<<<<+O++++X+++O+++++++<<<<<<<+<<<<<<<++<<<<<<<++++++O+++X++++++<<<<++++++O+++++++++++++++<<<<<<<<<",
"<<<<<<<<+O++++++O++++O+++++++O<<<<+++++++++O++++O++O+<<<<<<<<<<<<<<<<<<<<<O+O++++++++++++++++<<<<++O++++O+++++++++O++++<<<<<<<<<",
"<<<<<<<<<++O+OO++O++O++O++O+++<<<<+O+O+OO+O++OO+O+++O++<<<<<<<<<<<<<<<<<<O++++O++O+O+O+OO+OO+<<<<+O++O+++OO++O+OO+O+O+O<<<<<<<<<",
"<<<<<<<<<<<+O+O+++OO++++O+OO+O<<<<O+OO++OO+O++OO++OO+++OO<<<<<<<<<<<<<<++++O+O+OOOO+O++++O++O<<<<O++O+OO++O+OO++OO+++<<<<<<<<<<<",
"<<<<<<<<<<<<<++OOO++O+O++O++++<<<<++++O+++++O++++O++OO+++O+<<<<<<<<<<+O+O++O++O++++++OO+++O++<<<<++O+O+++O++++O++++<<<<<<<<<<<<<",
"<<<<<<<<<<<<<<++O++O+O+O++O+OO<<<<+O+OO+O+OOO+++++O+++O++O++<<<<<<<<+O+OOO+O+O++O++OOO++O+O+O<<<<OO+OO+O+O++O++OO<<<<<<<<<<<<<<<",
"<<<<<<<<<<<<<<<<OOOOO+OOOOOOO+<<<<O+O+OO+O+++Oo+OOOOOOOOOOOO<<<<<<<OOOO+O++OOOOOOOOO+OOOOOOO+<<<<+O++OO+OOOOOOO+<<<<<<<<<<<<<<<<",
"<<<<<<<<<<<<<<<<<<O+O+O+OOO++O<<<<OOO++OOO+OO+OOOOO++OO++OO+<<<<<<<++O++O+OOO++OO++OO++OO++OO<<<<OOO+O+OO++O+O<<<<<<<<<<<<<<<<<<",
"<<<<<<<<<<<<<<<<<<<<OOOOOOOOOO<<<<OOOOOXOOOOOOOOOOOOOOOOOOOO<<<<<<<OOOXOOOOOOOOOOOOOOOOOOOOOO<<<<OOOOOOOOOOO<<<<<<<<<<<<<<<<<<<<",
"<<<<<<<<<<<<<<<<<<<<<OOO+O+OOO<<<<O+OOO+OO+OO+OO+OOOOOOO+O+O<<<<<<<O+OOOOOOO+O+OOO+OOOOOO+OOO<<<<+OOO+OOOO+<<<<<<<<<<<<<<<<<<<<<",
"<<<<<<<<<<<<<<<<<<<<<<<OOOX+OO<<<<OOOOX+OOOOOOOOOOOOX+OOOOOO<<<<<<<OOOOOOOOOOOOOOOOOO+OOOOOO+<<<<OOOX+OOO<<<<<<<<<<<<<<<<<<<<<<<",
"<<<<<<<<<<<<<<<<<<<<<<<<<OOX+X<<<<OOOX+XOOOXOOOOXXOOXXOOOXOX<<<<<<<OOXOOOOOOOOOOOOOOX+OOXOO.X<<<<OOOOXO<<<<<<<<<<<<<<<<<<<<<<<<<",
"<<<<<<<<<<<<<<<<<<<<<<<<<<<OXO<<<<OOOOXOOOOOOOOO+O+OOOOOOOOO<<<<<<<OOX+OOOOOOOOOOOOOXOOOOOOOO<<<<OOOO<<<<<<<<<<<<<<<<<<<<<<<<<<<",
"<<<<<<<<<<<<<<<<<<<<<<<<<<<<XO<<<<+OXOOOXOXO.OOO.XO.OXOOXOO.<<<<<<<OXOXOOOooOXOOOOOOXOXOO.OOO<<<<OOX<<<<<<<<<<<<<<<<<<<<<<<<<<<<",
"<<<<<<<<<<<<<<<<<<<<<<<<<<<<<<<<<<.OOXO.OOOOOOO.OOOOOO.OOXOO<<<<<<<OOOOOoOOOXOXO.O.OOOOOOOOOO<<<<<<<<<<<<<<<<<<<<<<<<<<<<<<<<<<<",
"<<<<<<<<<<<<<<<<<<<<<<<<<<<<<<<<<<XXXXOOOOOO.OO.oOooOOOOOOO.<<<<<<<OOOOOoOOOOOO.O.O.OOOoOoOO.<<<<<<<<<<<<<<<<<<<<<<<<<<<<<<<<<<<",
"<<<<<<<<<<<<<<<<<<<<<<<<<<<<<<<<<<XXOXO.O.O.O.OOOXOOO.O.OX.O<<<<<<<.O.O.XOXOXX.OOOOO.O.OO.OXO<<<<<<<<<<<<<<<<<<<<<<<<<<<<<<<<<<<",
"<<<<<<<<<<<<<<<<<<<<<<<<<<<<<<<<<<<O...XX..XOO OXX.OXXXXX..O<<<<<<<.OO.OO.O.OO.OO.OO.OOO O...<<<<<<<<<<<<<<<<<<<<<<<<<<<<<<<<<<<",
"<<<<<<<<<<<<<<<<<<<<<<<<<<<<<<<<<<<<<..OOOO...ooooooooo.Ooo.<<<<<<<Oo.....o......O......ooO<<<<<<<<<<<<<<<<<<<<<<<<<<<<<<<<<<<<<",
"<<<<<<<<<<<<<<<<<<<<<<<<<<<<<<<<<<<<<<<X.oo.O. O..........O <<<<<<<....OOO.O.O.O......OOo<<<<<<<<<<<<<<<<<<<<<<<<<<<<<<<<<<<<<<<",
"<<<<<<<<<<<<<<<<<<<<<<<<<<<<<<<<<<<<<<<<...O..O.XO.OoOOoO.O.<<<<<<<OOo.o.........O.OO..<<<<<<<<<<<<<<<<<<<<<<<<<<<<<<<<<<<<<<<<<",
"<<<<<<<<<<<<<<<<<<<<<<<<<<<<<<<<<<<<<<<<<<...OO.oooo..XO.O..<<<<<<<O....ooo.ooOoO....O<<<<<<<<<<<<<<<<<<<<<<<<<<<<<<<<<<<<<<<<<<",
"<<<<<<<<<<<<<<<<<<<<<<<<<<<<<<<<<<<<<<<<<<<<......o.........<<<<<<<.................<<<<<<<<<<<<<<<<<<<<<<<<<<<<<<<<<<<<<<<<<<<<",
"<<<<<<<<<<<<<<<<<<<<<<<<<<<<<<<<<<<<<<<<<<<<<....  .. .... .<<<<<<<.   .  ........<<<<<<<<<<<<<<<<<<<<<<<<<<<<<<<<<<<<<<<<<<<<<<",
"<<<<<<<<<<<<<<<<<<<<<<<<<<<<<<<<<<<<<<<<<<<<<<<. ...........<<<<<<<.O...oo......<<<<<<<<<<<<<<<<<<<<<<<<<<<<<<<<<<<<<<<<<<<<<<<<",
"<<<<<<<<<<<<<<<<<<<<<<<<<<<<<<<<<<<<<<<<<<<<<<<<<XX.X.... ..<<<<<<<.   .  XX...<<<<<<<<<<<<<<<<<<<<<<<<<<<<<<<<<<<<<<<<<<<<<<<<<",
"<<<<<<<<<<<<<<<<<<<<<<<<<<<<<<<<<<<<<<<<<<<<<<<<<<<O........<<<<<<<..O..ooXX.<<<<<<<<<<<<<<<<<<<<<<<<<<<<<<<<<<<<<<<<<<<<<<<<<<<",
"<<<<<<<<<<<<<<<<<<<<<<<<<<<<<<<<<<<<<<<<<<<<<<<<<<<<..... . <<<<<<<..  .  .<<<<<<<<<<<<<<<<<<<<<<<<<<<<<<<<<<<<<<<<<<<<<<<<<<<<<",
"<<<<<<<<<<<<<<<<<<<<<<<<<<<<<<<<<<<<<<<<<<<<<<<<<<<<<<      <<<<<<<       <<<<<<<<<<<<<<<<<<<<<<<<<<<<<<<<<<<<<<<<<<<<<<<<<<<<<<",
"<<<<<<<<<<<<<<<<<<<<<<<<<<<<<<<<<<<<<<<<<<<<<<<<<<<<<<<<.. .<<<<<<<.....<<<<<<<<<<<<<<<<<<<<<<<<<<<<<<<<<<<<<<<<<<<<<<<<<<<<<<<<",
"<<<<<<<<<<<<<<<<<<<<<<<<<<<<<<<<<<<<<<<<<<<<<<<<<<<<<<<<<<  <<<<<<< ..<<<<<<<<<<<<<<<<<<<<<<<<<<<<<<<<<<<<<<<<<<<<<<<<<<<<<<<<<<",
"<<<<<<<<<<<<<<<<<<<<<<<<<<<<<<<<<<<<<<<<<<<<<<<<<<<<<<<<<<< <<<<<<< <<<<<<<<<<<<<<<<<<<<<<<<<<<<<<<<<<<<<<<<<<<<<<<<<<<<<<<<<<<<",
"<<<<<<<<<<<<<<<<<<<<<<<<<<<<<<<<<<<<<<<<<<<<<<<<<<<<<<<<<<<<<<<<<<<<<<<<<<<<<<<<<<<<<<<<<<<<<<<<<<<<<<<<<<<<<<<<<<<<<<<<<<<<<<<<"
};
