/* XPM */
static char *a5a3e5b13c954190947b93120fe459b3[] = {
/* columns rows colors chars-per-pixel */
"16 16 48 1 ",
"  c #418F9F",
". c #428F9F",
"X c #42909F",
"o c #4491A0",
"O c #4591A1",
"+ c #4893A2",
"@ c #4993A3",
"# c #4B95A4",
"$ c #4C95A4",
"% c #4C96A4",
"& c #4D96A4",
"* c #4D96A5",
"= c #4F97A6",
"- c #5098A6",
"; c #5198A7",
": c #549AA8",
"> c #549AA9",
", c #549BA9",
"< c #559BA9",
"1 c #589CAA",
"2 c #589CAB",
"3 c #589DAB",
"4 c #599DAB",
"5 c #5C9FAC",
"6 c #5D9FAC",
"7 c #5C9FAD",
"8 c #5D9FAD",
"9 c #60A1AF",
"0 c #61A1AF",
"q c #61A2AF",
"w c #62A2B0",
"e c #63A3B0",
"r c #64A3B1",
"t c #65A4B1",
"y c #65A4B2",
"u c #68A6B3",
"i c #69A6B3",
"p c #6BA7B4",
"a c #6BA8B5",
"s c #6CA8B5",
"d c #6DA8B5",
"f c #6FA9B6",
"g c #6FAAB6",
"h c #70AAB7",
"j c #72ABB7",
"k c #72ABB8",
"l c #74ACB9",
"z c None",
/* pixels */
"zzzzzzzllzzzzzzz",
"zzzzzzlkkjzzzzzz",
"zzzzjsksgjsjzzzz",
"zzpsssszzasssazz",
"zzziiiptiiuuizzz",
"ztezzetttttzzttz",
"z000zzw0wwzz000z",
"z58888zzzz58888z",
"zz44444zz444,4zz",
"z>>z>>>z,,>>z>>z",
"z--*z;-z---z;;-z",
"z*#**#*zz******z",
"zz++@@+zz+++++zz",
"zzzzooozoooozzzz",
"zzzzz..z..Xzzzzz",
"zzzzzzzzzzzzzzzz"
};
